<svg width="126" height="56" viewBox="0 0 126 56" fill="none" xmlns="http://www.w3.org/2000/svg">
<path d="M6.77076 8.93171H12.8471C14.7647 8.93171 16.3193 7.38786 16.3193 5.48343C16.3193 3.579 14.7647 2.03516 12.8471 2.03516H3.26385C1.46128 2.03516 0 3.48637 0 5.27654V27.2938C0 29.1506 1.51569 30.6558 3.38538 30.6558C5.25507 30.6558 6.77076 29.1506 6.77076 27.2938V19.4489H13.1075C14.8813 19.4489 16.3193 18.0209 16.3193 16.2593C16.3193 14.4977 14.8813 13.0696 13.1075 13.0696H6.77076V8.93171Z" fill="white"/>
<path d="M109.8 3.95224L113.7 11.753L117.066 4.24245C117.898 2.38728 120.116 1.60989 121.923 2.54008C123.634 3.42046 124.331 5.50484 123.492 7.23677L117.278 20.0767V27.25C117.278 29.2261 115.676 30.8281 113.7 30.8281C111.724 30.8281 110.122 29.2261 110.122 27.25V20.0767L103.984 6.74401C103.297 5.25154 103.841 3.4811 105.248 2.63236C106.86 1.6599 108.959 2.26838 109.8 3.95224Z" fill="white"/>
<path fill-rule="evenodd" clip-rule="evenodd" d="M82.5075 2.03516C80.3762 2.03516 78.6484 3.7629 78.6484 5.89418V26.7968C78.6484 28.9281 80.3762 30.6558 82.5075 30.6558H88.2962C96.1996 30.6558 102.607 24.2489 102.607 16.3455C102.607 8.44212 96.1996 2.03516 88.2962 2.03516H82.5075ZM88.2473 8.58659H85.2422V24.1038H88.2473C92.5323 24.1038 96.006 20.6302 96.006 16.3452C96.006 12.0602 92.5323 8.58659 88.2473 8.58659Z" fill="white"/>
<path fill-rule="evenodd" clip-rule="evenodd" d="M33.1 29.9599C40.3178 29.3989 46 23.3642 46 16.0024C46 8.27045 39.732 2.00244 32 2.00244C24.268 2.00244 18 8.27045 18 16.0024C18 23.3642 23.6822 29.3989 30.9 29.9599V19.8378C29.8512 19.6248 28.8791 19.1098 28.1109 18.3454C27.0795 17.319 26.5 15.9269 26.5 14.4754V10.097C26.5 9.49251 26.9925 9.00244 27.6 9.00244C28.2075 9.00244 28.7 9.49251 28.7 10.097V14.4754C28.7 15.3463 29.0477 16.1816 29.6665 16.7974C30.0179 17.147 30.4403 17.4097 30.9 17.5714V10.097C30.9 9.49251 31.3925 9.00244 32 9.00244C32.6075 9.00244 33.1 9.49251 33.1 10.097V17.5714C33.5597 17.4097 33.9821 17.147 34.3335 16.7974C34.9523 16.1816 35.3 15.3463 35.3 14.4754V10.097C35.3 9.49251 35.7925 9.00244 36.4 9.00244C37.0075 9.00244 37.5 9.49251 37.5 10.097V14.4754C37.5 15.9269 36.9205 17.319 35.8891 18.3454C35.1209 19.1098 34.1488 19.6248 33.1 19.8378V29.9599Z" fill="white"/>
<path fill-rule="evenodd" clip-rule="evenodd" d="M65.2555 30.3627C71.9033 29.0142 76.9046 23.1737 76.9046 16.1732C76.9046 8.17458 70.3755 1.69043 62.3215 1.69043C54.2674 1.69043 47.7383 8.17458 47.7383 16.1732C47.7383 24.1718 54.2674 30.6559 62.3215 30.6559C62.6238 30.6559 62.9241 30.6468 63.2219 30.6288V25.8537H57.4601C56.901 25.8537 56.4468 25.4054 56.4433 24.8502C56.4277 22.3583 56.4858 19.7232 57.424 16.9091C58.3672 14.0803 60.1727 11.1436 63.5369 7.95663C63.8313 7.67771 64.2648 7.59997 64.6389 7.759C65.0129 7.91803 65.2555 8.28321 65.2555 8.6873V30.3627ZM63.2216 23.8336V11.1787C61.1662 13.4741 60.0114 15.5726 59.3542 17.5435C58.6406 19.6839 58.4934 21.7287 58.4766 23.8336H63.2216Z" fill="white"/>
<path d="M1.55494 43.479L4.13494 47.919L6.73894 43.479H7.91494L4.67494 48.891V51.999H3.59494V48.867L0.366938 43.479H1.55494ZM9.09422 51.999V43.479H12.6462C13.0222 43.479 13.3662 43.559 13.6782 43.719C13.9902 43.871 14.2622 44.079 14.4942 44.343C14.7262 44.599 14.9062 44.891 15.0342 45.219C15.1622 45.539 15.2262 45.867 15.2262 46.203C15.2262 46.667 15.1222 47.111 14.9142 47.535C14.7062 47.951 14.4142 48.291 14.0382 48.555C13.6622 48.811 13.2222 48.939 12.7182 48.939H10.1742V51.999H9.09422ZM10.1742 47.979H12.6582C12.9542 47.979 13.2102 47.899 13.4262 47.739C13.6502 47.579 13.8222 47.363 13.9422 47.091C14.0702 46.819 14.1342 46.523 14.1342 46.203C14.1342 45.867 14.0622 45.567 13.9182 45.303C13.7742 45.031 13.5862 44.819 13.3542 44.667C13.1222 44.515 12.8662 44.439 12.5862 44.439H10.1742V47.979ZM16.5708 51.999V43.479H21.5268V44.439H17.6508V51.999H16.5708ZM25.828 52.071C25.324 52.071 24.848 51.991 24.4 51.831C23.96 51.671 23.564 51.443 23.212 51.147C22.868 50.851 22.588 50.499 22.372 50.091L23.284 49.599C23.46 49.927 23.68 50.203 23.944 50.427C24.208 50.651 24.5 50.819 24.82 50.931C25.148 51.043 25.48 51.099 25.816 51.099C26.256 51.099 26.66 51.011 27.028 50.835C27.404 50.651 27.728 50.403 28 50.091C28.272 49.779 28.476 49.423 28.612 49.023C28.756 48.615 28.82 48.191 28.804 47.751L29.284 48.087H25.036V47.199H29.26L28.804 47.511C28.796 47.127 28.724 46.751 28.588 46.383C28.452 46.007 28.256 45.671 28 45.375C27.752 45.079 27.444 44.843 27.076 44.667C26.716 44.491 26.3 44.403 25.828 44.403C25.5 44.403 25.18 44.455 24.868 44.559C24.564 44.663 24.284 44.823 24.028 45.039C23.78 45.247 23.568 45.519 23.392 45.855L22.516 45.291C22.828 44.747 23.252 44.303 23.788 43.959C24.332 43.607 25.008 43.431 25.816 43.431C26.472 43.431 27.056 43.555 27.568 43.803C28.08 44.043 28.512 44.367 28.864 44.775C29.216 45.183 29.484 45.643 29.668 46.155C29.852 46.659 29.944 47.179 29.944 47.715C29.944 48.275 29.844 48.815 29.644 49.335C29.452 49.855 29.172 50.323 28.804 50.739C28.444 51.147 28.012 51.471 27.508 51.711C27.004 51.951 26.444 52.071 25.828 52.071ZM37.0819 51.999V44.439H33.9019L33.8539 46.131C33.8139 47.291 33.7259 48.255 33.5899 49.023C33.4619 49.783 33.2739 50.383 33.0259 50.823C32.7859 51.255 32.4859 51.563 32.1259 51.747C31.7659 51.931 31.3379 52.023 30.8419 52.023V51.075C31.1459 51.075 31.4139 50.999 31.6459 50.847C31.8779 50.695 32.0739 50.431 32.2339 50.055C32.4019 49.671 32.5339 49.139 32.6299 48.459C32.7259 47.779 32.7899 46.911 32.8219 45.855L32.8939 43.479H38.1619V51.999H37.0819ZM39.4875 51.999L42.7875 47.595L39.6915 43.479H40.9635L43.6875 47.163H44.7195V43.479H45.7995V47.163H46.8195L49.5555 43.479H50.8155L47.7195 47.595L51.0315 51.999H49.7715L46.8435 48.147H45.7995V51.999H44.7195V48.147H43.6635L40.7355 51.999H39.4875ZM55.2427 51.999V43.479H56.3227V51.039H59.5147V43.479H60.5947V51.039H63.7867V43.479H64.8667V51.999H55.2427ZM66.9628 51.999V43.479H68.0428V50.499L72.9748 43.479H73.9828V51.999H72.9028V45.111L68.0308 51.999H66.9628ZM82.9306 43.479V51.999H81.8506V48.123H77.1586V51.999H76.0786V43.479H77.1586V47.163H81.8506V43.479H82.9306ZM87.9491 52.071C87.4451 52.071 86.9691 51.991 86.5211 51.831C86.0811 51.671 85.6851 51.443 85.3331 51.147C84.9891 50.851 84.7091 50.499 84.4931 50.091L85.4051 49.599C85.5811 49.927 85.8011 50.203 86.0651 50.427C86.3291 50.651 86.6211 50.819 86.9411 50.931C87.2691 51.043 87.6011 51.099 87.9371 51.099C88.3771 51.099 88.7811 51.011 89.1491 50.835C89.5251 50.651 89.8491 50.403 90.1211 50.091C90.3931 49.779 90.5971 49.423 90.7331 49.023C90.8771 48.615 90.9411 48.191 90.9251 47.751L91.4051 48.087H87.1571V47.199H91.3811L90.9251 47.511C90.9171 47.127 90.8451 46.751 90.7091 46.383C90.5731 46.007 90.3771 45.671 90.1211 45.375C89.8731 45.079 89.5651 44.843 89.1971 44.667C88.8371 44.491 88.4211 44.403 87.9491 44.403C87.6211 44.403 87.3011 44.455 86.9891 44.559C86.6851 44.663 86.4051 44.823 86.1491 45.039C85.9011 45.247 85.6891 45.519 85.5131 45.855L84.6371 45.291C84.9491 44.747 85.3731 44.303 85.9091 43.959C86.4531 43.607 87.1291 43.431 87.9371 43.431C88.5931 43.431 89.1771 43.555 89.6891 43.803C90.2011 44.043 90.6331 44.367 90.9851 44.775C91.3371 45.183 91.6051 45.643 91.7891 46.155C91.9731 46.659 92.0651 47.179 92.0651 47.715C92.0651 48.275 91.9651 48.815 91.7651 49.335C91.5731 49.855 91.2931 50.323 90.9251 50.739C90.5651 51.147 90.1331 51.471 89.6291 51.711C89.1251 51.951 88.5651 52.071 87.9491 52.071ZM96.539 52.071C96.035 52.071 95.559 51.991 95.111 51.831C94.671 51.671 94.275 51.443 93.923 51.147C93.579 50.851 93.299 50.499 93.083 50.091L93.995 49.599C94.171 49.927 94.391 50.203 94.655 50.427C94.919 50.651 95.211 50.819 95.531 50.931C95.859 51.043 96.191 51.099 96.527 51.099C96.967 51.099 97.371 51.011 97.739 50.835C98.115 50.651 98.439 50.403 98.711 50.091C98.983 49.779 99.187 49.423 99.323 49.023C99.467 48.615 99.531 48.191 99.515 47.751L99.995 48.087H95.747V47.199H99.971L99.515 47.511C99.507 47.127 99.435 46.751 99.299 46.383C99.163 46.007 98.967 45.671 98.711 45.375C98.463 45.079 98.155 44.843 97.787 44.667C97.427 44.491 97.011 44.403 96.539 44.403C96.211 44.403 95.891 44.455 95.579 44.559C95.275 44.663 94.995 44.823 94.739 45.039C94.491 45.247 94.279 45.519 94.103 45.855L93.227 45.291C93.539 44.747 93.963 44.303 94.499 43.959C95.043 43.607 95.719 43.431 96.527 43.431C97.183 43.431 97.767 43.555 98.279 43.803C98.791 44.043 99.223 44.367 99.575 44.775C99.927 45.183 100.195 45.643 100.379 46.155C100.563 46.659 100.655 47.179 100.655 47.715C100.655 48.275 100.555 48.815 100.355 49.335C100.163 49.855 99.883 50.323 99.515 50.739C99.155 51.147 98.723 51.471 98.219 51.711C97.715 51.951 97.155 52.071 96.539 52.071ZM102.153 51.999V43.479H105.705C106.081 43.479 106.425 43.559 106.737 43.719C107.049 43.871 107.321 44.079 107.553 44.343C107.785 44.599 107.965 44.891 108.093 45.219C108.221 45.539 108.285 45.867 108.285 46.203C108.285 46.667 108.181 47.111 107.973 47.535C107.765 47.951 107.473 48.291 107.097 48.555C106.721 48.811 106.281 48.939 105.777 48.939H103.233V51.999H102.153ZM103.233 47.979H105.717C106.013 47.979 106.269 47.899 106.485 47.739C106.709 47.579 106.881 47.363 107.001 47.091C107.129 46.819 107.193 46.523 107.193 46.203C107.193 45.867 107.121 45.567 106.977 45.303C106.833 45.031 106.645 44.819 106.413 44.667C106.181 44.515 105.925 44.439 105.645 44.439H103.233V47.979ZM112.605 52.071C112.101 52.071 111.625 51.991 111.177 51.831C110.737 51.671 110.341 51.443 109.989 51.147C109.645 50.851 109.365 50.499 109.149 50.091L110.061 49.599C110.237 49.927 110.457 50.203 110.721 50.427C110.985 50.651 111.277 50.819 111.597 50.931C111.925 51.043 112.257 51.099 112.593 51.099C113.033 51.099 113.437 51.011 113.805 50.835C114.181 50.651 114.505 50.403 114.777 50.091C115.049 49.779 115.253 49.423 115.389 49.023C115.533 48.615 115.597 48.191 115.581 47.751L116.061 48.087H111.813V47.199H116.037L115.581 47.511C115.573 47.127 115.501 46.751 115.365 46.383C115.229 46.007 115.033 45.671 114.777 45.375C114.529 45.079 114.221 44.843 113.853 44.667C113.493 44.491 113.077 44.403 112.605 44.403C112.277 44.403 111.957 44.455 111.645 44.559C111.341 44.663 111.061 44.823 110.805 45.039C110.557 45.247 110.345 45.519 110.169 45.855L109.293 45.291C109.605 44.747 110.029 44.303 110.565 43.959C111.109 43.607 111.785 43.431 112.593 43.431C113.249 43.431 113.833 43.555 114.345 43.803C114.857 44.043 115.289 44.367 115.641 44.775C115.993 45.183 116.261 45.643 116.445 46.155C116.629 46.659 116.721 47.179 116.721 47.715C116.721 48.275 116.621 48.815 116.421 49.335C116.229 49.855 115.949 50.323 115.581 50.739C115.221 51.147 114.789 51.471 114.285 51.711C113.781 51.951 113.221 52.071 112.605 52.071ZM121.195 52.071C120.691 52.071 120.215 51.991 119.767 51.831C119.327 51.671 118.931 51.443 118.579 51.147C118.235 50.851 117.955 50.499 117.739 50.091L118.651 49.599C118.827 49.927 119.047 50.203 119.311 50.427C119.575 50.651 119.867 50.819 120.187 50.931C120.515 51.043 120.847 51.099 121.183 51.099C121.623 51.099 122.027 51.011 122.395 50.835C122.771 50.651 123.095 50.403 123.367 50.091C123.639 49.779 123.843 49.423 123.979 49.023C124.123 48.615 124.187 48.191 124.171 47.751L124.651 48.087H120.403V47.199H124.627L124.171 47.511C124.163 47.127 124.091 46.751 123.955 46.383C123.819 46.007 123.623 45.671 123.367 45.375C123.119 45.079 122.811 44.843 122.443 44.667C122.083 44.491 121.667 44.403 121.195 44.403C120.867 44.403 120.547 44.455 120.235 44.559C119.931 44.663 119.651 44.823 119.395 45.039C119.147 45.247 118.935 45.519 118.759 45.855L117.883 45.291C118.195 44.747 118.619 44.303 119.155 43.959C119.699 43.607 120.375 43.431 121.183 43.431C121.839 43.431 122.423 43.555 122.935 43.803C123.447 44.043 123.879 44.367 124.231 44.775C124.583 45.183 124.851 45.643 125.035 46.155C125.219 46.659 125.311 47.179 125.311 47.715C125.311 48.275 125.211 48.815 125.011 49.335C124.819 49.855 124.539 50.323 124.171 50.739C123.811 51.147 123.379 51.471 122.875 51.711C122.371 51.951 121.811 52.071 121.195 52.071Z" fill="#66B60F"/>
</svg>
